<?xml version="1.0" encoding="UTF-8"?>
<svg xmlns="http://www.w3.org/2000/svg" viewBox="0 0 512 512" width="512" height="512"><g id="outline"><path d="M488,16H184a8,8,0,0,0-8,8V48a8,8,0,0,0,3.2,6.4l39.478,29.608-13.208,4.4A8,8,0,0,0,200,96v14.7l-22.992,68.977-12.674,12.673-4.573-18.292a8,8,0,0,0-3.323-4.716l-24-16A8,8,0,0,0,128,152H104a8,8,0,0,0-8-8H88a40,40,0,0,0,0,80h8a7.987,7.987,0,0,0,6.732-3.69l1.268.634v23.349a43.721,43.721,0,0,0,8.416,25.88l42.789,58.836a83.747,83.747,0,0,0,21.222,20.428A7.987,7.987,0,0,0,176,352v40a8,8,0,0,0,8,8h36a27.994,27.994,0,0,0,25.251-40.092,83.57,83.57,0,0,0,27.311-5.916L297.541,344h4.168a73.916,73.916,0,0,0,4.822,42.216l14.115,32.935a7.973,7.973,0,0,0,2.487,3.179,3.172,3.172,0,0,0,.455.538A62.188,62.188,0,0,0,366.627,440a10.084,10.084,0,0,0,9.268-6.111l17.5-40.84,6.6,39.613V456a7.994,7.994,0,0,0,.845,3.578l16,32A8,8,0,0,0,424,496h64a8,8,0,0,0,8-8V24A8,8,0,0,0,488,16ZM355.2,207.047,392,258.563V280H364.53l-36.907-61.511A27.884,27.884,0,0,0,293.215,206.9l-16.326,6.53,2.122-8.487,18.482-12.321ZM392,367.056l-12.422-6.211a8,8,0,0,0-6.108-.434l-15.4,5.134-6.626-33.132a21.493,21.493,0,0,0,2.587.162c2.032,0,37.972-9.969,37.972-9.969ZM278.948,288l15.211-22.816A73.494,73.494,0,0,0,312.227,288Zm-2.215-118.478,8.173,12.259-17.344,11.563a8,8,0,0,0-3.323,4.716l-7.463,29.849-13.1,13.1-41.906,13.969-6.265-10.964,31.464-12.585a8,8,0,0,0,3.889-3.312s24.2-40.355,24.295-40.538l6.519-13.036Zm71.517,142.5-2.692-10.77L361.3,296H392v9.966l-36.279,10.365a6,6,0,0,1-7.471-4.314Zm-5.522-26.692-5.282,1.76-12.153-9.115a57.747,57.747,0,0,1-20.223-28.059l-1.48-4.441a8,8,0,0,0-14.246-1.908l-24.988,37.482-14.282-23.8L276.5,230.818l22.66-9.065a11.954,11.954,0,0,1,14.747,4.968l34.106,56.843ZM226.013,263.762l-9.845,16.407-6.3-11.025ZM240,271.549,249.87,288H230.13Zm32-117.315-18.53,6.177a7.994,7.994,0,0,0-4.625,4.011l-7.864,15.725-22.455,37.426-12.146,4.859,24.13-33.782a8.01,8.01,0,0,0,1.41-3.519l7.407-51.85,12.251-6.126A8,8,0,0,0,256,120V108.944l16,8ZM125.578,168l15.7,10.469A49.521,49.521,0,0,1,104,199.857V168ZM64,184a24.028,24.028,0,0,1,24-24v48A24.028,24.028,0,0,1,64,184ZM168.145,319.6l-42.79-58.836A27.828,27.828,0,0,1,120,244.293V216a7.953,7.953,0,0,0-.54-2.839A65.242,65.242,0,0,0,148.5,195l3.736,14.943a8,8,0,0,0,13.418,3.717l24-24a8.018,8.018,0,0,0,1.933-3.127S216,112.86,216,112V101.766l15.386-5.129L240,100.944v14.112l-11.578,5.789a8,8,0,0,0-4.342,6.024l-7.724,54.069-38.48,53.872-15.533,15.533A8,8,0,0,0,160,256v16a8,8,0,0,0,16,0V259.313l6.25-6.25,25.132,43.98-12.669,44.34A67.567,67.567,0,0,1,168.145,319.6ZM220,384H192V360h28a12,12,0,0,1,0,24Zm46.619-44.863A67.709,67.709,0,0,1,241.363,344H210.606l11.429-40h59.406l5.41,27.044Zm54.619,40.776a57.941,57.941,0,0,1-1.709-41.2l.065-.194A8,8,0,0,0,312,328h-9.441l-4.8-24H319.6a12.033,12.033,0,0,1,11.767,9.646l12.178,60.889-14.36,23.933Zm59.664,1.673-17.51,40.858a2.069,2.069,0,0,1-2.12,1.254,46.149,46.149,0,0,1-21.4-8.127,2.1,2.1,0,0,1-.605-2.792l17.678-29.465a2.085,2.085,0,0,1,1.127-.9l16.5-5.5a2.081,2.081,0,0,1,1.59.113l3.762,1.881A2.081,2.081,0,0,1,380.9,381.586ZM480,480H454.777L440,391.338V360a8,8,0,0,0-16,0v32a8.054,8.054,0,0,0,.108,1.315L438.556,480h-9.612L416,454.111V432a8.054,8.054,0,0,0-.108-1.315L408,383.338V256a8,8,0,0,0-1.49-4.65l-40-56a8,8,0,0,0-4.57-3.111L336,185.754V148.281l20.438-13.625a8,8,0,0,0-8.876-13.312l-24,16A8,8,0,0,0,320,144v37.754l-19.06-4.765L288,157.578V112a8,8,0,0,0-4.422-7.155L252.223,89.167,192,44V32H296V64a8,8,0,0,0,3.562,6.656L320,84.281V104a8,8,0,0,0,16,0V80a8,8,0,0,0-3.562-6.656L312,59.719V32H416V68.687L394.343,90.343A8,8,0,0,0,392,96v48a8,8,0,0,0,1.344,4.438L408,170.422V192a8,8,0,0,0,.572,2.971L424,233.541V272a8,8,0,0,0,16,0V232a8,8,0,0,0-.572-2.971L424,190.459V168a8,8,0,0,0-1.344-4.438L408,141.578V99.313l21.657-21.656A8,8,0,0,0,432,72V32h48Z"/></g></svg>